<svg xmlns="http://www.w3.org/2000/svg" xmlns:xlink="http://www.w3.org/1999/xlink" width="500" zoomAndPan="magnify" viewBox="0 0 375 374.999991" height="500" preserveAspectRatio="xMidYMid meet" version="1.2"><defs><clipPath id="f0de3b1449"><path d="M 29 0 L 361.917969 0 L 361.917969 374 L 29 374 Z M 29 0 "/></clipPath><clipPath id="1e69a6bbbe"><path d="M 0 371.25 L 3.75 371.25 L 3.75 375 L 0 375 Z M 0 371.25 "/></clipPath></defs><g id="02195f5fd6"><g clip-rule="nonzero" clip-path="url(#f0de3b1449)"><path style=" stroke:none;fill-rule:nonzero;fill:#000000;fill-opacity:1;" d="M 355.285156 176.175781 C 354.835938 178.363281 351.597656 180.085938 347.914062 181.425781 C 337.351562 158.367188 329.125 134.898438 323.5 111.621094 C 322.421875 107.167969 321.464844 102.832031 320.539062 98.644531 C 315.6875 76.703125 311.496094 57.757812 295.382812 47.917969 C 291.703125 45.671875 289.328125 45.046875 284.136719 43.679688 C 281.53125 42.996094 278.289062 42.144531 273.757812 40.796875 C 258.960938 36.398438 244.535156 30.894531 230.800781 24.433594 C 234.261719 21.859375 236.957031 18.703125 237.679688 14.441406 C 237.726562 14.171875 237.734375 13.890625 237.765625 13.617188 C 251.523438 20.765625 265.402344 27.164062 279.1875 32.710938 C 281.761719 33.746094 284.070312 34.648438 286.167969 35.46875 C 295.539062 39.128906 300.242188 40.964844 306.015625 45.832031 C 313.324219 51.996094 315.308594 57.21875 323.652344 79.203125 C 325.097656 83.011719 326.730469 87.304688 328.601562 92.167969 C 333.207031 104.128906 336.742188 116.785156 340.164062 129.023438 C 344.304688 143.851562 348.589844 159.1875 354.859375 173.644531 C 355.050781 174.085938 355.5 175.125 355.285156 176.175781 M 340.230469 183.738281 L 339.6875 183.882812 C 329.335938 186.652344 321.382812 189.09375 314.992188 191.054688 C 300.664062 195.453125 296.414062 196.609375 293.804688 194.054688 C 293.050781 193.316406 292.84375 192.773438 291.765625 189.304688 L 291.234375 187.605469 C 288.015625 177.386719 284.023438 166.976562 279.371094 156.664062 C 278.785156 155.367188 277.390625 154.644531 275.988281 154.90625 C 274.59375 155.171875 273.558594 156.359375 273.492188 157.777344 C 269.167969 245.730469 269.914062 305.257812 275.722656 334.742188 C 275.859375 335.4375 276.140625 336.9375 276.140625 338.871094 C 249.050781 350.371094 220.433594 356.417969 191.027344 356.816406 C 160.078125 357.265625 128.628906 351.046875 99.984375 338.941406 C 102.71875 321.859375 106.574219 262.019531 111.761719 156.195312 C 111.835938 154.707031 110.835938 153.386719 109.390625 153.042969 C 109.15625 152.992188 108.921875 152.964844 108.6875 152.964844 C 107.488281 152.964844 106.363281 153.671875 105.867188 154.816406 C 103.574219 160.074219 101.308594 165.457031 99.132812 170.8125 C 97.023438 176 95.472656 180 94.261719 183.113281 C 90.992188 191.519531 90.480469 192.648438 88.863281 193.625 C 86.324219 195.164062 75.523438 192.898438 57.667969 187.074219 C 53.417969 185.6875 49.550781 184.425781 46.402344 183.363281 C 49.609375 174.839844 52.582031 166.097656 55.230469 157.300781 C 61.730469 135.695312 65.207031 117.523438 68.003906 102.917969 C 72.984375 76.894531 75.988281 61.1875 90.015625 51.652344 C 91.507812 50.636719 99.59375 47.613281 113.136719 42.554688 C 126.855469 37.433594 140.773438 32.722656 154.550781 28.511719 C 165.433594 39.859375 180.199219 44.710938 189.128906 46.695312 C 189.351562 46.742188 189.574219 46.765625 189.796875 46.765625 C 190.351562 46.765625 190.902344 46.617188 191.386719 46.324219 C 200.917969 40.574219 210.4375 35.328125 219.671875 30.726562 L 220.664062 30.234375 C 222.769531 29.1875 224.945312 28.101562 227.027344 26.898438 C 241.570312 33.878906 256.90625 39.804688 272.660156 44.484375 C 277.257812 45.851562 280.527344 46.710938 283.160156 47.402344 C 288.121094 48.710938 290.175781 49.25 293.375 51.199219 C 308.09375 60.1875 311.925781 77.527344 316.78125 99.476562 C 317.710938 103.6875 318.675781 108.046875 319.757812 112.527344 C 325.410156 135.90625 333.65625 159.46875 344.238281 182.625 C 342.808594 183.046875 341.425781 183.417969 340.230469 183.738281 M 137.945312 363.644531 C 128.875 362.652344 104.777344 360.019531 100.253906 348.011719 C 99.546875 346.136719 99.414062 344.347656 99.464844 342.898438 C 127.398438 354.550781 157.882812 360.683594 188.070312 360.683594 C 189.074219 360.683594 190.078125 360.679688 191.082031 360.664062 C 220.242188 360.269531 248.648438 354.417969 275.597656 343.285156 C 275.527344 343.570312 275.46875 343.851562 275.378906 344.140625 C 271.550781 356.613281 248.601562 375.726562 137.945312 363.644531 M 56.25 100.375 C 58.394531 94.066406 60.707031 87.25 63.191406 79.890625 L 63.375 79.355469 C 68.820312 63.226562 71.304688 55.867188 78.828125 48.144531 C 85.945312 40.835938 93.089844 37.886719 104.921875 33 C 110.25 30.800781 116.285156 28.308594 123.613281 24.890625 C 130.84375 21.515625 137.96875 17.832031 144.953125 13.9375 C 145.65625 15.597656 146.417969 17.230469 147.292969 18.785156 C 148.628906 21.164062 150.132812 23.339844 151.753906 25.351562 C 138.445312 29.457031 125.011719 34.011719 111.640625 39.007812 C 96.144531 44.796875 89.730469 47.191406 87.851562 48.46875 C 72.507812 58.898438 69.214844 76.121094 64.226562 102.191406 C 61.445312 116.710938 57.992188 134.777344 51.546875 156.191406 C 48.917969 164.9375 45.957031 173.632812 42.765625 182.105469 C 40.464844 181.285156 38.925781 180.667969 38.457031 180.320312 C 31.476562 173.34375 36.722656 157.886719 56.25 100.375 M 221.976562 7.566406 C 221.78125 8.089844 221.566406 8.601562 221.324219 9.101562 C 218.0625 15.804688 211.363281 18.707031 202.886719 22.386719 L 200.058594 23.625 C 197.140625 24.910156 194.203125 26.289062 191.257812 27.710938 C 191.199219 27.699219 191.148438 27.664062 191.085938 27.660156 C 186.257812 27.230469 174.101562 25.140625 165.558594 14.992188 C 163.742188 12.828125 162.242188 10.429688 161.007812 7.867188 C 170.722656 11.003906 180.804688 12.601562 191.054688 12.601562 C 201.617188 12.601562 212 10.898438 221.976562 7.566406 M 152.660156 15.769531 C 151.78125 14.207031 151.039062 12.554688 150.363281 10.871094 C 152.417969 9.675781 154.460938 8.457031 156.484375 7.21875 C 158.003906 10.972656 160.046875 14.414062 162.613281 17.46875 C 169.671875 25.851562 178.882812 29.265625 185.316406 30.65625 C 182.109375 32.292969 178.902344 34.007812 175.699219 35.785156 C 167.238281 31.9375 158.261719 25.726562 152.660156 15.769531 M 231.613281 13.40625 C 230.773438 18.34375 224.246094 21.582031 217.929688 24.714844 L 216.925781 25.210938 C 207.890625 29.714844 198.59375 34.828125 189.273438 40.410156 C 186.640625 39.78125 183.550781 38.894531 180.257812 37.671875 C 187.398438 33.796875 194.558594 30.253906 201.609375 27.144531 L 204.417969 25.917969 C 213.261719 22.082031 220.898438 18.769531 224.78125 10.785156 C 225.316406 9.6875 225.753906 8.542969 226.105469 7.359375 C 227.894531 8.347656 229.683594 9.335938 231.476562 10.300781 C 231.734375 11.386719 231.78125 12.425781 231.613281 13.40625 M 360.496094 171.167969 C 354.40625 157.121094 350.179688 141.996094 346.09375 127.367188 C 342.636719 114.988281 339.058594 102.1875 334.347656 89.957031 C 332.476562 85.101562 330.851562 80.816406 329.410156 77.015625 C 320.820312 54.394531 318.511719 48.316406 309.984375 41.128906 C 303.425781 35.597656 297.777344 33.390625 288.40625 29.730469 C 286.328125 28.921875 284.039062 28.027344 281.484375 27 C 263.164062 19.628906 244.667969 10.730469 226.511719 0.550781 C 225.714844 0.101562 224.761719 0.0351562 223.90625 0.359375 C 213.378906 4.398438 202.328125 6.445312 191.054688 6.445312 C 179.785156 6.445312 168.734375 4.398438 158.207031 0.359375 C 157.300781 0.015625 156.289062 0.113281 155.476562 0.621094 C 144.4375 7.5 132.839844 13.789062 121.011719 19.308594 C 113.808594 22.667969 107.839844 25.132812 102.570312 27.308594 C 90.4375 32.320312 82.421875 35.628906 74.421875 43.847656 C 65.921875 52.570312 63.121094 60.863281 57.539062 77.386719 L 57.359375 77.917969 C 54.875 85.277344 52.5625 92.085938 50.421875 98.398438 C 28.894531 161.796875 24.414062 174.992188 34.109375 184.679688 C 35.8125 186.378906 40.003906 187.789062 55.761719 192.925781 C 83.4375 201.949219 88.722656 200.902344 92.046875 198.894531 C 95.558594 196.777344 96.496094 194.355469 100 185.347656 C 101.183594 182.292969 102.699219 178.390625 104.75 173.339844 C 99.878906 270.664062 96.261719 324.964844 93.699219 339.1875 C 93.429688 340.675781 92.617188 345.203125 94.492188 350.179688 C 99.683594 363.964844 120.085938 367.886719 137.285156 369.765625 C 160.550781 372.308594 181.160156 373.570312 199.011719 373.570312 C 247.523438 373.570312 275.648438 364.246094 281.265625 345.949219 C 283.058594 340.109375 282.082031 335.175781 281.757812 333.515625 C 276.351562 306.074219 275.429688 251.632812 279.003906 171.585938 C 281.371094 177.574219 283.503906 183.550781 285.363281 189.460938 L 285.886719 191.132812 C 287.050781 194.875 287.582031 196.585938 289.503906 198.460938 C 294.839844 203.679688 301.269531 201.707031 316.800781 196.941406 C 323.144531 194.996094 331.039062 192.574219 341.28125 189.832031 L 341.820312 189.6875 C 349.824219 187.546875 359.785156 184.886719 361.316406 177.410156 C 361.917969 174.460938 360.859375 172.003906 360.496094 171.167969 "/></g><g clip-rule="nonzero" clip-path="url(#1e69a6bbbe)"><path style=" stroke:none;fill-rule:nonzero;fill:#ffffff;fill-opacity:1;" d="M 0 371.25 L 3.75 371.25 L 3.75 375 L 0 375 Z M 0 371.25 "/></g></g></svg>